<?xml version="1.0" encoding="UTF-8" standalone="no"?>
<!-- Created with Inkscape (http://www.inkscape.org/) -->

<svg
   width="113.07437mm"
   height="124.46481mm"
   viewBox="0 0 113.07437 124.46481"
   version="1.1"
   id="svg5"
   inkscape:version="1.1.2 (0a00cf5339, 2022-02-04)"
   sodipodi:docname="sus.svg"
   xmlns:inkscape="http://www.inkscape.org/namespaces/inkscape"
   xmlns:sodipodi="http://sodipodi.sourceforge.net/DTD/sodipodi-0.dtd"
   xmlns="http://www.w3.org/2000/svg"
   xmlns:svg="http://www.w3.org/2000/svg">
  <sodipodi:namedview
     id="namedview7"
     pagecolor="#ffffff"
     bordercolor="#666666"
     borderopacity="1.0"
     inkscape:pageshadow="2"
     inkscape:pageopacity="0.0"
     inkscape:pagecheckerboard="0"
     inkscape:document-units="mm"
     showgrid="false"
     fit-margin-top="0"
     fit-margin-left="0"
     fit-margin-right="0"
     fit-margin-bottom="0"
     inkscape:zoom="0.60756173"
     inkscape:cx="-276.51511"
     inkscape:cy="71.597663"
     inkscape:window-width="1920"
     inkscape:window-height="1005"
     inkscape:window-x="0"
     inkscape:window-y="0"
     inkscape:window-maximized="1"
     inkscape:current-layer="layer1" />
  <defs
     id="defs2" />
  <g
     inkscape:label="Layer 1"
     inkscape:groupmode="layer"
     id="layer1"
     transform="translate(-174.81283,-129.8693)">
    <path
       style="fill:#66a61e;fill-opacity:1;stroke:none;stroke-width:0.264583"
       d="m 231.45301,231.42725 h 7.93749 c 0.87472,0 2.33151,-0.25955 3.01546,0.42413 0.7964,0.79666 0.42413,2.78262 0.42413,3.80921 0,3.16494 -0.42043,6.67332 0.16377,9.78958 1.73779,9.27232 13.45142,9.20644 20.73831,8.70744 4.84346,-0.33153 8.78258,-1.11125 11.29136,-5.79702 2.17461,-4.06189 1.67322,-9.29482 1.67322,-13.75834 v -25.13541 c 0,-2.89322 -0.9099,-7.60651 0.15955,-10.29494 1.03134,-2.59159 5.12339,-4.72414 6.78682,-7.16756 5.22499,-7.67556 5.63669,-18.33113 1.17317,-26.45833 -1.50681,-2.74373 -3.52293,-5.25542 -6.00287,-7.17339 -1.45442,-1.12474 -3.64808,-1.89627 -4.85537,-3.24855 -2.04099,-2.28653 -3.04826,-6.04671 -4.86039,-8.62806 -4.42913,-6.3096 -10.63678,-11.13084 -17.80091,-13.96902 -22.42634,-8.88456 -48.33857,5.44261 -52.96852,29.05027 -1.00806,5.14032 -0.74189,10.39786 -0.74189,15.61041 v 22.48958 33.07292 c 0,4.41087 -1.11416,10.76193 0.8935,14.81667 3.56341,7.19613 11.87318,6.61722 18.68567,6.61458 4.04151,-0.002 8.17615,-0.24289 11.06381,-3.44355 4.54449,-5.03714 3.22369,-13.07016 3.22369,-19.31062 m 3.96874,-67.65686 c 6.74106,-0.87815 14.10071,-0.0765 20.90209,-0.0765 5.06227,0 10.1928,-0.35586 14.55208,2.7014 9.78641,6.86303 6.23623,23.24761 -5.55625,25.32221 -7.81791,1.3753 -16.66928,0.28681 -24.60625,0.28681 -3.63828,0 -7.51072,0.37227 -10.58333,-1.99205 -3.95949,-3.04694 -4.23333,-6.90748 -4.23333,-11.5017 0,-6.93367 1.27026,-13.66467 9.52499,-14.7402 m -46.30207,67.65686 v -61.91249 c -4.06467,0 -7.99481,0.0524 -11.03308,3.22103 -3.3425,3.48589 -2.98984,7.93459 -2.98984,12.38938 v 23.8125 c 0,5.94545 -1.48,14.00519 2.31796,19.04894 2.83983,3.77137 7.47416,3.44064 11.70496,3.44064 z"
       id="path874" />
    <path
       style="fill:#000000;stroke-width:0.264583"
       id="path836"
       d="" />
  </g>
</svg>
